<svg width="248" height="179" viewBox="0 0 248 179" fill="none" xmlns="http://www.w3.org/2000/svg">
<path fill-rule="evenodd" clip-rule="evenodd" d="M68.4043 50.7957V51.0413C68.4275 51.0041 68.4395 50.9616 68.4395 50.9185C68.4395 50.8753 68.4275 50.8322 68.4043 50.7957Z" fill="#241D50"/>
<path fill-rule="evenodd" clip-rule="evenodd" d="M68.3839 51.0406C67.1227 52.927 35.156 47.4267 35.156 47.4267C35.156 47.4267 17.6043 77.8011 32.442 110.307C42.6111 131.487 51.1492 145.308 49.8946 169.163C40.2471 171.148 41.0462 178.125 47.141 177.847C48.2834 177.847 53.85 177.946 54.6358 177.88C62.0777 177.218 57.2771 146.771 55.5404 137.253C55.1707 135.492 55.0188 134.426 55.0188 134.426C55.0188 134.426 55.2235 135.479 55.5404 137.253C57.0196 144.255 61.9655 162.345 74.6901 168.964C73.7458 168.441 68.8131 168.772 65.4454 170.347C59.06 173.326 54.6952 178.833 68.6018 177.847C85.9289 178.244 102.616 177.814 102.616 177.814C102.616 177.814 148.509 153.171 109.027 112.703C89.0589 92.237 63.9002 103.787 68.3839 51.0406Z" fill="#241D50"/>
<path fill-rule="evenodd" clip-rule="evenodd" d="M55.5412 137.279C55.2242 135.505 55.0195 134.453 55.0195 134.453C55.0195 134.453 55.1714 135.518 55.5412 137.279Z" fill="#241D50"/>
<path d="M153.975 61.1676C132.614 67.7866 126.38 99.7032 122.207 145.619C121.612 152.119 118.608 171.77 98.1641 176.98C98.2367 177.145 98.3027 177.304 98.3688 177.469C126.73 180.117 138.986 153.482 140.729 130.124C143.892 95.3413 148.29 72.1419 167.05 78.1651C175.212 81.7857 179.57 53.6551 153.975 61.1676Z" fill="#2A2460"/>
<path fill-rule="evenodd" clip-rule="evenodd" d="M89.8914 25.5311C84.3842 26.1599 74.8424 27.4109 73.8255 28.6553C65.6176 18.9916 49.1885 18.1642 44.4671 18.1378L24.2015 1.10055C23.8819 0.82983 23.4976 0.647144 23.0862 0.571026C22.6755 0.494908 22.2515 0.528001 21.8567 0.666337C21.4618 0.804674 21.1098 1.04362 20.8351 1.36001C20.5611 1.67639 20.3742 2.05963 20.2923 2.47066C18.9056 9.47353 16.1983 23.2873 16.4228 23.6977C-6.90677 57.7589 38.7486 73.5782 56.7493 71.9234C77.7809 67.8925 82.7004 60.8962 85.1436 54.0522C87.9632 46.1095 86.8142 44.7063 86.8142 44.7063L92.4601 28.8208C92.6027 28.4282 92.643 28.0053 92.5776 27.5929C92.5116 27.1799 92.3426 26.7907 92.0857 26.4618C91.8288 26.1328 91.4927 25.8747 91.109 25.7118C90.7247 25.549 90.3061 25.4868 89.8914 25.5311Z" fill="#2A2460"/>
<path d="M55.6718 55.9783C53.8426 56.8057 52.5352 56.905 51.9937 56.2762C51.3334 55.5216 51.6569 53.8537 51.8749 53.3572L51.9805 53.2182C52.0697 53.1024 52.1179 52.9601 52.1179 52.8145C52.1179 52.6682 52.0697 52.5266 51.9805 52.4107C51.898 52.287 51.7758 52.1949 51.6345 52.1493C51.4932 52.1036 51.3407 52.1069 51.2013 52.1592C51.0085 52.2486 50.8507 52.4001 50.7523 52.5894C49.4316 54.3037 48.0647 55.0914 46.7903 54.9392C43.7594 54.6016 41.5605 49.5778 41.5605 49.5116C41.5255 49.4302 41.4753 49.3567 41.4126 49.2945C41.3492 49.233 41.2745 49.184 41.1927 49.1516C41.1108 49.1185 41.0236 49.1019 40.9351 49.1032C40.8473 49.1039 40.7602 49.1224 40.6789 49.1575C40.5977 49.1919 40.5244 49.2429 40.463 49.3058C40.4009 49.3693 40.3527 49.4441 40.3197 49.5255C40.2867 49.6076 40.2708 49.6956 40.2715 49.7843C40.2728 49.8724 40.2907 49.9597 40.3257 50.0411C40.4247 50.2794 42.8349 55.8261 46.6054 56.2828C47.2684 56.3437 47.9373 56.2656 48.5686 56.0525C49.1999 55.8393 49.7796 55.4958 50.2702 55.0451C50.2577 55.5084 50.3488 55.9684 50.5357 56.392C50.7232 56.8156 51.0025 57.1923 51.3532 57.4941C51.7461 57.7509 52.1885 57.9217 52.6514 57.9958C53.1143 58.0699 53.5878 58.0454 54.0407 57.9243C54.7948 57.7674 55.5285 57.5232 56.2264 57.1962C56.3083 57.1618 56.3816 57.1108 56.4437 57.0473C56.5051 56.9838 56.554 56.9083 56.5857 56.8256C56.618 56.7428 56.6326 56.6541 56.6299 56.5654C56.6273 56.4768 56.6068 56.39 56.5698 56.3093C56.5342 56.2265 56.4826 56.1524 56.4173 56.0909C56.3526 56.0293 56.2753 55.9816 56.1915 55.9505C56.1076 55.9194 56.0184 55.9062 55.9286 55.9108C55.8395 55.9155 55.7523 55.9386 55.6718 55.9783Z" fill="white"/>
<path fill-rule="evenodd" clip-rule="evenodd" d="M52.9849 48.115C53.117 48.115 45.543 41.9263 51.7171 52.6623C51.7171 52.6623 62.3946 47.4134 52.9849 48.115Z" fill="url(#paint0_linear_13_1647)"/>
<path fill-rule="evenodd" clip-rule="evenodd" d="M0.699219 36.598C1.54444 36.4326 14.4077 35.3272 29.0935 45.441C29.0935 45.441 13.9191 32.117 0.699219 36.598Z" fill="white"/>
<path fill-rule="evenodd" clip-rule="evenodd" d="M0 46.9236C0.726366 46.5199 12.1831 41.7211 28.4471 46.6919C28.4471 46.6919 10.8294 38.9213 0 46.9236Z" fill="white"/>
<path fill-rule="evenodd" clip-rule="evenodd" d="M67.0371 56.7528C80.0919 57.8714 86.6755 64.7683 86.5764 64.7617C81.3466 56.2828 67.0371 56.7528 67.0371 56.7528Z" fill="white"/>
<path fill-rule="evenodd" clip-rule="evenodd" d="M66.832 57.7324C78.4077 62.5377 82.4225 70.7982 82.3367 70.7651C79.9991 61.4257 66.832 57.7324 66.832 57.7324Z" fill="white"/>
<path opacity="0.21" fill-rule="evenodd" clip-rule="evenodd" d="M23.5151 6.71341C20.154 7.34222 22.234 21.4075 22.234 21.4075C26.196 18.75 30.852 17.3229 35.6189 17.3038C35.6189 17.3038 26.8696 6.09123 23.5151 6.71341Z" fill="white"/>
<path opacity="0.21" fill-rule="evenodd" clip-rule="evenodd" d="M86.0747 30.1181C83.823 29.4562 76.8301 32.1038 76.8301 32.1038C81.2477 32.8848 83.856 38.2925 83.856 38.2925C83.856 38.2925 88.3331 30.7667 86.0747 30.1181Z" fill="white"/>
<path d="M211.742 176.668C205.733 176.668 199.598 174.828 194.342 172.916L192.453 172.221C184.1 169.143 175.456 165.966 167.202 168.143C164.519 168.95 161.926 170.03 159.463 171.367C157.911 172.141 156.313 172.935 154.669 173.611C150.707 175.226 145.015 176.569 140.234 173.822C140.094 173.743 139.971 173.636 139.872 173.509C139.774 173.382 139.701 173.236 139.658 173.08C139.616 172.925 139.605 172.763 139.625 172.602C139.645 172.442 139.697 172.288 139.777 172.148C139.857 172.008 139.963 171.886 140.091 171.787C140.218 171.688 140.364 171.616 140.519 171.575C140.675 171.533 140.837 171.522 140.997 171.543C141.156 171.564 141.31 171.617 141.449 171.698C145.583 174.074 150.925 172.492 153.745 171.34C155.303 170.678 156.861 169.924 158.367 169.176C160.98 167.763 163.73 166.624 166.575 165.774C175.575 163.397 184.582 166.714 193.292 169.924L195.174 170.586C203.375 173.577 213.835 176.397 221.917 171.631C222.057 171.536 222.213 171.471 222.379 171.439C222.544 171.407 222.714 171.41 222.878 171.447C223.043 171.483 223.198 171.554 223.334 171.653C223.47 171.753 223.584 171.879 223.669 172.025C223.754 172.17 223.809 172.331 223.829 172.499C223.849 172.666 223.836 172.836 223.787 172.998C223.74 173.16 223.659 173.31 223.551 173.439C223.443 173.568 223.309 173.674 223.159 173.75C219.686 175.739 215.741 176.747 211.742 176.668Z" fill="url(#paint1_linear_13_1647)"/>
<path d="M240.048 169.868C249.638 160.255 249.638 144.669 240.048 135.056C230.457 125.443 214.909 125.443 205.318 135.056C195.727 144.669 195.727 160.255 205.318 169.868C214.909 179.482 230.457 179.482 240.048 169.868Z" fill="url(#paint2_linear_13_1647)"/>
<defs>
<linearGradient id="paint0_linear_13_1647" x1="49.2937" y1="49.4984" x2="56.8611" y2="49.4984" gradientUnits="userSpaceOnUse">
<stop stop-color="#EC6588"/>
<stop offset="1" stop-color="#E71A80"/>
</linearGradient>
<linearGradient id="paint1_linear_13_1647" x1="17952.8" y1="3176.7" x2="28686.2" y2="3176.7" gradientUnits="userSpaceOnUse">
<stop stop-color="#EC6588"/>
<stop offset="1" stop-color="#E71A80"/>
</linearGradient>
<linearGradient id="paint2_linear_13_1647" x1="198.132" y1="152.462" x2="247.24" y2="152.462" gradientUnits="userSpaceOnUse">
<stop stop-color="#E71A80"/>
<stop offset="1" stop-color="#EC6588"/>
</linearGradient>
</defs>
</svg>
